<mxfile host="65bd71144e">
    <diagram id="QxIPzUU26J5lNZvCNei3" name="Page-1">
        <mxGraphModel dx="2415" dy="1408" grid="0" gridSize="10" guides="1" tooltips="1" connect="1" arrows="1" fold="1" page="0" pageScale="1" pageWidth="827" pageHeight="1169" math="0" shadow="0">
            <root>
                <mxCell id="0"/>
                <mxCell id="1" parent="0"/>
                <mxCell id="2" value="FunctionsContexts" style="swimlane;rounded=1;" parent="1" vertex="1">
                    <mxGeometry x="493" y="547" width="120" height="130" as="geometry"/>
                </mxCell>
                <mxCell id="3" value="size_t size&lt;br&gt;&lt;br&gt;size_t count&lt;br&gt;&lt;br&gt;Context * list_ctx" style="text;html=1;strokeColor=none;fillColor=none;align=center;verticalAlign=middle;whiteSpace=wrap;rounded=1;" parent="2" vertex="1">
                    <mxGeometry y="30" width="120" height="100" as="geometry"/>
                </mxCell>
                <mxCell id="66" style="edgeStyle=none;html=1;exitX=1;exitY=0.75;exitDx=0;exitDy=0;entryX=0;entryY=0;entryDx=0;entryDy=0;" edge="1" parent="1" source="5" target="7">
                    <mxGeometry relative="1" as="geometry"/>
                </mxCell>
                <mxCell id="67" style="edgeStyle=none;html=1;exitX=1;exitY=0.5;exitDx=0;exitDy=0;entryX=0;entryY=0;entryDx=0;entryDy=0;" edge="1" parent="1" source="5" target="19">
                    <mxGeometry relative="1" as="geometry"/>
                </mxCell>
                <mxCell id="5" value="Context" style="swimlane;rounded=1;" parent="1" vertex="1">
                    <mxGeometry x="737" y="547" width="150" height="130" as="geometry"/>
                </mxCell>
                <mxCell id="6" value="Symbole * ret&lt;br&gt;&lt;br&gt;ListSymboles * list_sym" style="text;html=1;strokeColor=none;fillColor=none;align=center;verticalAlign=middle;whiteSpace=wrap;rounded=1;" parent="5" vertex="1">
                    <mxGeometry x="10" y="30" width="130" height="100" as="geometry"/>
                </mxCell>
                <mxCell id="40" style="edgeStyle=none;html=1;exitX=1;exitY=0.75;exitDx=0;exitDy=0;entryX=0;entryY=0;entryDx=0;entryDy=0;rounded=1;curved=1;" parent="1" source="7" target="19" edge="1">
                    <mxGeometry relative="1" as="geometry"/>
                </mxCell>
                <mxCell id="7" value="ListSymboles" style="swimlane;rounded=1;" parent="1" vertex="1">
                    <mxGeometry x="997" y="544.5" width="160" height="130" as="geometry"/>
                </mxCell>
                <mxCell id="8" value="size_t size&lt;br&gt;&lt;br&gt;size_t count&lt;br&gt;&lt;br&gt;Symbole ** symboles" style="text;html=1;strokeColor=none;fillColor=none;align=center;verticalAlign=middle;whiteSpace=wrap;rounded=1;" parent="7" vertex="1">
                    <mxGeometry x="20" y="30" width="120" height="100" as="geometry"/>
                </mxCell>
                <mxCell id="9" value="ListGoto" style="swimlane;rounded=1;" parent="1" vertex="1">
                    <mxGeometry x="15" y="547" width="120" height="140" as="geometry"/>
                </mxCell>
                <mxCell id="10" value="size_t size&lt;br&gt;&lt;br&gt;size_t count&lt;br&gt;&lt;br&gt;size_t * quads_idx" style="text;html=1;strokeColor=none;fillColor=none;align=center;verticalAlign=middle;whiteSpace=wrap;rounded=1;" parent="9" vertex="1">
                    <mxGeometry x="3" y="38.5" width="120" height="83" as="geometry"/>
                </mxCell>
                <mxCell id="11" value="Code" style="swimlane;rounded=1;" parent="1" vertex="1">
                    <mxGeometry x="15" y="140" width="120" height="130" as="geometry"/>
                </mxCell>
                <mxCell id="12" value="size_t capacity&lt;br&gt;&lt;br&gt;size_t nextquad&lt;br&gt;&lt;br&gt;Quad * quads" style="text;html=1;strokeColor=none;fillColor=none;align=center;verticalAlign=middle;whiteSpace=wrap;rounded=1;" parent="11" vertex="1">
                    <mxGeometry y="30" width="120" height="100" as="geometry"/>
                </mxCell>
                <mxCell id="13" value="Quad" style="swimlane;rounded=1;" parent="1" vertex="1">
                    <mxGeometry x="270" y="211.5" width="120" height="172" as="geometry"/>
                </mxCell>
                <mxCell id="14" value="Symbole * sym1&lt;br&gt;&lt;br&gt;Symbole * sym2&lt;br&gt;&lt;br&gt;Symbole * sym3&lt;br&gt;&lt;br&gt;int8_t label&lt;br&gt;&lt;br&gt;enum quad_kind" style="text;html=1;strokeColor=none;fillColor=none;align=center;verticalAlign=middle;whiteSpace=wrap;rounded=1;" parent="13" vertex="1">
                    <mxGeometry y="50" width="120" height="100" as="geometry"/>
                </mxCell>
                <mxCell id="17" value="quad_kind (enum)" style="swimlane;startSize=23;rounded=1;" parent="1" vertex="1">
                    <mxGeometry x="551" y="265" width="330" height="160" as="geometry"/>
                </mxCell>
                <mxCell id="18" value="OP_LV,OP_GV,OP_NFC,OP_DFC,&lt;br&gt;OP_GE,OP_LE,OP_NE,OP_GT,OP_LT,OP_EQ,&lt;br&gt;OP_ADD,OP_SUB,OP_MUL,OP_DIV,OP_MOD,&lt;br&gt;OP_INCR,OP_DECR,OP_ASSIGN,&lt;br&gt;OP_AND,OP_OR,OP_NOT,OP_UMOINS,&lt;br&gt;OP_CALL,OP_WS,OP_WI,OP_RI,OP_WB,&lt;br&gt;OP_PUSH,OP_GOTO,OP_GOTO_IF,&lt;br&gt;OP_GOTO_FOR," style="text;html=1;strokeColor=none;fillColor=none;align=center;verticalAlign=middle;whiteSpace=wrap;rounded=1;" parent="17" vertex="1">
                    <mxGeometry x="26" y="30" width="278" height="120" as="geometry"/>
                </mxCell>
                <mxCell id="19" value="Symbole" style="swimlane;rounded=1;" parent="1" vertex="1">
                    <mxGeometry x="1209" y="270" width="120" height="170" as="geometry"/>
                </mxCell>
                <mxCell id="20" value="enum sym_type type&lt;br&gt;&lt;br&gt;enum sym_kind kind&lt;br&gt;&lt;br&gt;char * name&lt;br&gt;&lt;br&gt;union value&lt;br&gt;&lt;br&gt;uint32_t offset" style="text;html=1;strokeColor=none;fillColor=none;align=center;verticalAlign=middle;whiteSpace=wrap;rounded=1;" parent="19" vertex="1">
                    <mxGeometry y="39" width="120" height="120" as="geometry"/>
                </mxCell>
                <mxCell id="21" value="sym_type (enum)" style="swimlane;rounded=1;" parent="1" vertex="1">
                    <mxGeometry x="1489" y="200" width="120" height="125" as="geometry"/>
                </mxCell>
                <mxCell id="22" value="T_NONE&lt;br&gt;T_INT&lt;br&gt;T_BOOL&lt;br&gt;T_STRING&lt;br&gt;T_CHAR&lt;br&gt;T_VOID" style="text;html=1;strokeColor=none;fillColor=none;align=center;verticalAlign=middle;whiteSpace=wrap;rounded=1;" parent="21" vertex="1">
                    <mxGeometry y="30" width="120" height="100" as="geometry"/>
                </mxCell>
                <mxCell id="23" value="sym_kind (enum)" style="swimlane;rounded=1;" parent="1" vertex="1">
                    <mxGeometry x="1489" y="345" width="120" height="155" as="geometry"/>
                </mxCell>
                <mxCell id="24" value="K_NONE&lt;br&gt;K_CONST&lt;br&gt;K_VAR&lt;br&gt;K_TAB&lt;br&gt;K_TAB_IDX&lt;br&gt;K_GLOB&lt;br&gt;K_FCT&lt;br&gt;K_QUAD" style="text;html=1;strokeColor=none;fillColor=none;align=center;verticalAlign=middle;whiteSpace=wrap;rounded=1;" parent="23" vertex="1">
                    <mxGeometry y="34" width="120" height="100" as="geometry"/>
                </mxCell>
                <mxCell id="25" value="SymboleTable" style="swimlane;rounded=1;" parent="1" vertex="1">
                    <mxGeometry x="250" y="-72.5" width="150" height="109" as="geometry"/>
                </mxCell>
                <mxCell id="26" value="HashTable * table&lt;br&gt;&lt;br&gt;SymboleTable * next" style="text;html=1;strokeColor=none;fillColor=none;align=center;verticalAlign=middle;whiteSpace=wrap;rounded=1;" parent="25" vertex="1">
                    <mxGeometry y="30" width="150" height="79" as="geometry"/>
                </mxCell>
                <mxCell id="56" value="" style="endArrow=classic;html=1;exitX=1;exitY=0.75;exitDx=0;exitDy=0;entryX=0;entryY=0.75;entryDx=0;entryDy=0;rounded=1;curved=1;" parent="25" source="26" target="26" edge="1">
                    <mxGeometry width="50" height="50" relative="1" as="geometry">
                        <mxPoint x="110" y="222.5" as="sourcePoint"/>
                        <mxPoint x="160" y="172.5" as="targetPoint"/>
                        <Array as="points">
                            <mxPoint x="250" y="162.5"/>
                            <mxPoint x="-110" y="152.5"/>
                        </Array>
                    </mxGeometry>
                </mxCell>
                <mxCell id="27" value="SymboleTableRoot" style="swimlane;rounded=1;" parent="1" vertex="1">
                    <mxGeometry y="-90" width="150" height="120" as="geometry"/>
                </mxCell>
                <mxCell id="28" value="size_t temporary&lt;br&gt;&lt;br&gt;SymboleTable * next&lt;br&gt;&lt;br&gt;SymboleTable * poped" style="text;html=1;strokeColor=none;fillColor=none;align=center;verticalAlign=middle;whiteSpace=wrap;rounded=1;" parent="27" vertex="1">
                    <mxGeometry y="20" width="150" height="100" as="geometry"/>
                </mxCell>
                <mxCell id="29" value="HashTable" style="swimlane;rounded=1;" parent="1" vertex="1">
                    <mxGeometry x="500" y="-80" width="200" height="124" as="geometry"/>
                </mxCell>
                <mxCell id="30" value="size_t size&lt;br&gt;&lt;br&gt;size_t count&lt;br&gt;&lt;br&gt;HashTableBucketRoot * buckets" style="text;html=1;strokeColor=none;fillColor=none;align=center;verticalAlign=middle;whiteSpace=wrap;rounded=1;" parent="29" vertex="1">
                    <mxGeometry y="24" width="200" height="100" as="geometry"/>
                </mxCell>
                <mxCell id="31" value="HashTableBucket" style="swimlane;rounded=1;" parent="1" vertex="1">
                    <mxGeometry x="1050" y="-59" width="150" height="111" as="geometry"/>
                </mxCell>
                <mxCell id="32" value="Symbole * symbole&lt;br&gt;&lt;br&gt;HashTableBucket * next" style="text;html=1;strokeColor=none;fillColor=none;align=center;verticalAlign=middle;whiteSpace=wrap;rounded=1;" parent="31" vertex="1">
                    <mxGeometry y="32" width="150" height="79" as="geometry"/>
                </mxCell>
                <mxCell id="57" value="" style="endArrow=classic;html=1;entryX=0;entryY=0.75;entryDx=0;entryDy=0;exitX=1;exitY=0.75;exitDx=0;exitDy=0;rounded=1;curved=1;" parent="31" source="32" target="32" edge="1">
                    <mxGeometry width="50" height="50" relative="1" as="geometry">
                        <mxPoint x="140" y="129" as="sourcePoint"/>
                        <mxPoint x="-10" y="111" as="targetPoint"/>
                        <Array as="points">
                            <mxPoint x="240" y="169"/>
                            <mxPoint x="-100" y="159"/>
                        </Array>
                    </mxGeometry>
                </mxCell>
                <mxCell id="33" value="HashTableBucketRoot" style="swimlane;rounded=1;" parent="1" vertex="1">
                    <mxGeometry x="800" y="-70" width="150" height="122" as="geometry"/>
                </mxCell>
                <mxCell id="34" value="HashTableBucket * next" style="text;html=1;strokeColor=none;fillColor=none;align=center;verticalAlign=middle;whiteSpace=wrap;rounded=1;" parent="33" vertex="1">
                    <mxGeometry y="32" width="150" height="72" as="geometry"/>
                </mxCell>
                <mxCell id="36" style="edgeStyle=none;html=1;exitX=1;exitY=0.75;exitDx=0;exitDy=0;entryX=0;entryY=0;entryDx=0;entryDy=0;rounded=1;curved=1;" parent="1" source="3" target="5" edge="1">
                    <mxGeometry relative="1" as="geometry"/>
                </mxCell>
                <mxCell id="41" style="edgeStyle=none;html=1;exitX=1;exitY=0;exitDx=0;exitDy=0;entryX=0;entryY=0;entryDx=0;entryDy=0;rounded=1;curved=1;" parent="1" source="20" target="21" edge="1">
                    <mxGeometry relative="1" as="geometry"/>
                </mxCell>
                <mxCell id="42" style="edgeStyle=none;html=1;exitX=1;exitY=0.25;exitDx=0;exitDy=0;entryX=0;entryY=0;entryDx=0;entryDy=0;rounded=1;curved=1;" parent="1" source="20" target="23" edge="1">
                    <mxGeometry relative="1" as="geometry"/>
                </mxCell>
                <mxCell id="46" style="edgeStyle=none;html=1;exitX=1;exitY=0.75;exitDx=0;exitDy=0;entryX=0;entryY=0;entryDx=0;entryDy=0;rounded=1;curved=1;" parent="1" source="12" target="13" edge="1">
                    <mxGeometry relative="1" as="geometry"/>
                </mxCell>
                <mxCell id="52" style="edgeStyle=none;html=1;exitX=1;exitY=0.5;exitDx=0;exitDy=0;entryX=0;entryY=0;entryDx=0;entryDy=0;rounded=1;curved=1;" parent="1" source="34" target="31" edge="1">
                    <mxGeometry relative="1" as="geometry"/>
                </mxCell>
                <mxCell id="53" style="edgeStyle=none;html=1;exitX=1;exitY=0.25;exitDx=0;exitDy=0;entryX=0;entryY=0;entryDx=0;entryDy=0;rounded=1;curved=1;" parent="1" source="26" target="29" edge="1">
                    <mxGeometry relative="1" as="geometry"/>
                </mxCell>
                <mxCell id="59" value="" style="endArrow=classic;html=1;exitX=1;exitY=0.25;exitDx=0;exitDy=0;entryX=0;entryY=0;entryDx=0;entryDy=0;rounded=1;curved=1;" parent="1" source="32" target="19" edge="1">
                    <mxGeometry width="50" height="50" relative="1" as="geometry">
                        <mxPoint x="1380" y="120" as="sourcePoint"/>
                        <mxPoint x="1430" y="70" as="targetPoint"/>
                        <Array as="points">
                            <mxPoint x="1400" y="110"/>
                            <mxPoint x="1170" y="200"/>
                        </Array>
                    </mxGeometry>
                </mxCell>
                <mxCell id="61" style="edgeStyle=none;html=1;exitX=1;exitY=0.75;exitDx=0;exitDy=0;entryX=0;entryY=0;entryDx=0;entryDy=0;rounded=1;curved=1;" parent="1" source="30" target="33" edge="1">
                    <mxGeometry relative="1" as="geometry"/>
                </mxCell>
                <mxCell id="62" style="edgeStyle=none;html=1;exitX=1;exitY=0.5;exitDx=0;exitDy=0;entryX=0;entryY=0;entryDx=0;entryDy=0;rounded=1;curved=1;" parent="1" source="28" target="25" edge="1">
                    <mxGeometry relative="1" as="geometry"/>
                </mxCell>
                <mxCell id="63" value="value (union)" style="swimlane;rounded=1;" vertex="1" parent="1">
                    <mxGeometry x="1489" y="522" width="120" height="155" as="geometry"/>
                </mxCell>
                <mxCell id="64" value="int32_t int_lit&lt;br&gt;int8_t bool_lit&lt;br&gt;char * string_lit&lt;br&gt;char char_lit&lt;br&gt;int tab_size&lt;br&gt;Symbole * tab[2]&lt;br&gt;ListSymboles * args&lt;br&gt;size_t idx_quad" style="text;html=1;strokeColor=none;fillColor=none;align=center;verticalAlign=middle;whiteSpace=wrap;rounded=1;" vertex="1" parent="63">
                    <mxGeometry y="34" width="120" height="100" as="geometry"/>
                </mxCell>
                <mxCell id="65" style="edgeStyle=none;html=1;exitX=1;exitY=0.75;exitDx=0;exitDy=0;entryX=0;entryY=0;entryDx=0;entryDy=0;" edge="1" parent="1" source="20" target="63">
                    <mxGeometry relative="1" as="geometry"/>
                </mxCell>
                <mxCell id="68" value="" style="curved=1;endArrow=classic;html=1;exitX=1;exitY=0.25;exitDx=0;exitDy=0;entryX=0;entryY=0;entryDx=0;entryDy=0;" edge="1" parent="1" source="14" target="19">
                    <mxGeometry width="50" height="50" relative="1" as="geometry">
                        <mxPoint x="530" y="206" as="sourcePoint"/>
                        <mxPoint x="580" y="156" as="targetPoint"/>
                        <Array as="points">
                            <mxPoint x="580" y="166"/>
                            <mxPoint x="984" y="194"/>
                        </Array>
                    </mxGeometry>
                </mxCell>
                <mxCell id="69" style="edgeStyle=none;html=1;exitX=1;exitY=1;exitDx=0;exitDy=0;entryX=0;entryY=0;entryDx=0;entryDy=0;" edge="1" parent="1" source="14" target="17">
                    <mxGeometry relative="1" as="geometry"/>
                </mxCell>
            </root>
        </mxGraphModel>
    </diagram>
</mxfile>